<svg width="360" height="100" xmlns="http://www.w3.org/2000/svg" xmlns:svg="http://www.w3.org/2000/svg">
 <!-- Created with SVG-edit - https://github.com/SVG-Edit/svgedit-->
 <defs>
  <linearGradient id="svg_44" x1="0" x2="0" y1="0" y2="1">
   <stop offset="0.66276" stop-color="#0460d9"/>
   <stop offset="1" stop-color="#2b7ce5"/>
  </linearGradient>
 </defs>
 <g class="layer" display="inline">
  <title>city2</title>
  <g id="svg_43">
   <path d="m-0.75027,99.97537c0,0 0,-24.2901 0,-24.2901c0,0 5.97046,0 5.97046,0.40484c0,0.40483 -0.44226,-25.50461 -0.22113,-25.50461c0.22113,0 15.03672,0 15.03672,0.40483c0,0.40483 0,24.74797 -0.05896,24.61395c-0.05896,-0.13401 8.91413,0.08098 8.84512,0c-0.069,-0.08098 0.28009,-9.63506 0.28009,-9.63506c0,0 12.39107,0 12.32421,-0.08098c-0.06685,-0.08097 0.05896,-11.26218 -0.22112,-11.33537c-0.28009,-0.07319 13.7689,0.08097 13.70994,0c-0.05896,-0.08098 -0.3833,20.72755 -0.3833,21.13239c0,0.40484 4.0048,0 3.92135,-0.08097c-0.08345,-0.08098 0.05896,-30.68649 0,-30.76746c-0.05896,-0.08098 1.82799,0.08097 1.76903,-0.40483c-0.05897,-0.48581 0.05896,-4.37221 0,-4.45319c-0.05897,-0.08097 8.46182,0.08098 8.40287,0c-0.05896,-0.08097 0.05896,4.20949 0,4.04835c-0.05896,-0.16114 1.83901,0.08098 1.76902,0c-0.06999,-0.08097 0.05897,44.20986 0,44.12701l6.85498,0l-0.16217,-29.47197c0,0.40483 8.4145,0 8.34391,-0.08098c-0.07059,-0.08097 0.05896,28.41943 0,28.33846c-0.05897,-0.08098 8.50825,0.08097 8.40287,0c-0.10539,-0.08098 0.05896,-42.4267 0,-42.50767c-0.05896,-0.08098 9.34898,0.08097 9.28738,0c-0.06159,-0.08098 -0.3833,43.80315 -0.16217,43.80315c0.22113,0 9.06895,0 9.0073,-0.08098c-0.06166,-0.08097 -0.16217,-33.52033 0.05896,-33.52033l9.95076,-0.40483l0,25.09978c0.22113,0 13.26953,0 13.20873,-0.08098c-0.0608,-0.08097 0.05896,-38.38045 0,-38.45932c-0.05896,-0.07886 2.52798,0.08098 2.43241,-0.40483c-0.09557,-0.4858 0.05896,-4.42974 0,-4.85803c-0.05896,-0.42826 15.53793,-0.32385 15.3168,-0.32385c-0.22112,0 0,4.87485 -0.05896,4.77705c-0.05896,-0.09782 2.31012,0.08097 2.21128,0c-0.09884,-0.08098 -0.16217,31.25327 -0.16217,31.6581l9.50851,0l-0.28009,-18.70338c-0.05896,-0.08098 15.56318,0.08097 15.47897,0c-0.08421,-0.08098 0.05896,19.51305 0,19.43208c-0.05896,-0.08097 4.92881,0.08098 4.86482,0c-0.06399,-0.08097 -0.16217,28.41943 0.05896,28.41943c0.22112,0 -185.30539,-0.80966 -185.30539,-0.80966l0.00001,0l0,0l0,0l0,-0.00004z" fill="url(#svg_44)" id="svg_39" stroke="#666666" stroke-width="0"/>
   <path d="m184.01387,100.54799c0,0 0,-28.0154 0,-28.0154c0,0 5.71044,0 5.71044,0.46692c0,0.46692 -0.423,-29.41618 -0.2115,-29.41618c0.2115,0 14.38185,0 14.38185,0.46692c0,0.46692 0,28.5435 -0.05639,28.38893c-0.05639,-0.15456 8.52591,0.0934 8.4599,0c-0.066,-0.09339 0.2679,-11.11277 0.2679,-11.11277c0,0 11.85142,0 11.78748,-0.0934c-0.06395,-0.09339 0.05639,-12.98943 -0.2115,-13.07385c-0.26789,-0.08441 13.16926,0.09339 13.11286,0c-0.05638,-0.09339 -0.3666,23.90649 -0.3666,24.37342c0,0.46692 3.83039,0 3.75056,-0.0934c-0.07981,-0.09339 0.0564,-35.39277 0,-35.48617c-0.05638,-0.0934 1.74838,0.09339 1.69199,-0.46692c-0.05639,-0.56032 0.05639,-5.04277 0,-5.13616c-0.05639,-0.09339 8.0933,0.09339 8.03691,0c-0.05639,-0.09339 0.05639,4.8551 0,4.66924c-0.05639,-0.18587 1.75892,0.09339 1.69198,0c-0.06694,-0.0934 0.05639,50.99019 0,50.89464l6.55643,0l-0.15511,-33.992c0,0.46692 8.04804,0 7.98052,-0.0934c-0.06751,-0.09339 0.0564,32.77803 0,32.68463c-0.05638,-0.0934 8.13771,0.09339 8.03692,0c-0.10079,-0.0934 0.05639,-48.93356 0,-49.02695c-0.05639,-0.0934 8.94182,0.09339 8.88291,0c-0.05891,-0.0934 -0.36661,50.52111 -0.15511,50.52111c0.2115,0 8.67398,0 8.61502,-0.09339c-0.05897,-0.0934 -0.15511,-38.66125 0.05638,-38.66125l9.5174,-0.46692l0,28.94925c0.2115,0 12.69164,0 12.63348,-0.0934c-0.05816,-0.09339 0.05639,-44.26675 0,-44.35772c-0.0564,-0.09095 2.41787,0.09339 2.32647,-0.46692c-0.0914,-0.56031 0.0564,-5.10912 0,-5.60307c-0.05639,-0.49395 14.86124,-0.37353 14.64974,-0.37353c-0.2115,0 0,5.62251 -0.05639,5.50968c-0.0564,-0.11281 2.20951,0.09339 2.11497,0c-0.09453,-0.09339 -0.1551,36.0465 -0.1551,36.51342l9.0944,0l-0.26789,-21.57187c-0.0564,-0.09339 14.88539,0.0934 14.80484,0c-0.08054,-0.09339 0.05639,22.50572 0,22.41232c-0.0564,-0.09339 4.71415,0.0934 4.65295,0c-0.0612,-0.09339 -0.15511,32.77803 0.05639,32.77803c0.2115,0 -177.23512,-0.93385 -177.23512,-0.93385l0.00001,0l0.00001,0.00001l0,0z" fill="url(#svg_44)" id="svg_10" stroke="#666666" stroke-width="0"/>
  </g>
 </g>
</svg>