<svg width="360" height="100" xmlns="http://www.w3.org/2000/svg" xmlns:svg="http://www.w3.org/2000/svg">
 <!-- Created with SVG-edit - https://github.com/SVG-Edit/svgedit-->
 <defs>
  <linearGradient id="svg_62" x2="0" y2="1">
   <stop offset="0" stop-color="#00b3d3"/>
   <stop offset="1" stop-color="#14c3e2"/>
  </linearGradient>
 </defs>
 <g class="layer" display="inline">
  <title>trees2</title>
  <g id="svg_42">
   <path d="m146.00634,93.38833c-0.3907,-0.36366 -0.07115,-1.00605 -0.04816,-1.47755c0.16871,-0.50393 0.16118,-3.84621 -0.44528,-3.85904c-0.64412,-0.21554 -1.37719,0.08237 -1.9681,-0.34061c-0.40019,-0.26127 -0.5246,-0.79412 -0.51411,-1.27318c0.00791,-0.49648 -0.44606,-0.70547 -0.59217,-1.12147c-0.1976,-0.51901 -0.02701,-1.11214 0.31195,-1.5077c0.32027,-0.40301 0.03913,-0.93084 0.20307,-1.37189c0.23382,-0.59973 0.93213,-0.33458 1.30725,-0.7473c0.40268,-0.31346 0.74634,-0.85599 1.30446,-0.77537c0.53899,0.03755 1.1408,0.14409 1.59689,-0.26002c0.42519,-0.3918 1.02028,-0.60139 1.55407,-0.36058c0.50638,0.17238 1.08223,0.5323 1.08456,1.1941c-0.15451,0.67895 0.42943,0.67062 0.84936,0.76425c0.49714,0.24684 1.00964,0.63042 1.21522,1.20779c0.05487,0.66001 -0.62336,1.20725 -0.31571,1.88102c0.12059,0.65656 -0.3973,1.02109 -0.76959,1.37692c-0.15318,0.64239 -0.73399,1.16473 -1.35826,1.01197c-0.50282,-0.09091 -0.81288,0.51508 -1.32562,0.46196c-0.33987,0.3855 -0.10827,3.69368 -0.04536,4.15013c0.25595,0.56431 -0.10085,1.18838 -0.67711,1.16931c-0.45154,0.05966 -0.94334,0.08761 -1.36736,-0.12275l0,0.00001z" fill="#00b3d3" id="svg_49" stroke="#666666" stroke-width="0"/>
   <path d="m212.10585,93.4131c-0.29302,-0.27275 -0.05336,-0.75454 -0.03612,-1.10816c0.12653,-0.37795 0.12089,-2.88466 -0.33396,-2.89428c-0.48309,-0.16166 -1.03289,0.06177 -1.47608,-0.25545c-0.30014,-0.19595 -0.39345,-0.5956 -0.38558,-0.95489c0.00593,-0.37236 -0.33454,-0.52911 -0.44413,-0.8411c-0.1482,-0.38926 -0.02025,-0.83411 0.23396,-1.13078c0.2402,-0.30226 0.02935,-0.69812 0.15231,-1.02892c0.17537,-0.4498 0.69909,-0.25093 0.98044,-0.56047c0.302,-0.23509 0.55976,-0.64199 0.97834,-0.58152c0.40424,0.02816 0.8556,0.10806 1.19767,-0.19502c0.31889,-0.29385 0.76521,-0.45104 1.16555,-0.27044c0.37979,0.12929 0.81168,0.39923 0.81342,0.89557c-0.11588,0.50922 0.32207,0.50298 0.63702,0.57319c0.37285,0.18514 0.75722,0.47282 0.91141,0.90585c0.04116,0.49501 -0.46752,0.90544 -0.23678,1.41077c0.09044,0.49242 -0.29797,0.76581 -0.5772,1.03269c-0.11488,0.48179 -0.55049,0.87354 -1.01869,0.75897c-0.37711,-0.06818 -0.60967,0.38631 -0.99422,0.34648c-0.2549,0.28912 -0.0812,2.77026 -0.03401,3.1126c0.19196,0.42322 -0.07565,0.89128 -0.50784,0.87698c-0.33866,0.04474 -0.7075,0.06571 -1.02552,-0.09207l0.00001,0z" fill="#00b3d3" id="svg_51" stroke="#666666" stroke-width="0"/>
   <path d="m228.65055,92.41735c-0.47441,-0.44157 -0.0864,-1.22162 -0.05848,-1.79415c0.20486,-0.61192 0.19572,-4.6704 -0.54069,-4.68598c-0.78215,-0.26173 -1.67231,0.10002 -2.38985,-0.41359c-0.48595,-0.31725 -0.63701,-0.96429 -0.62428,-1.546c0.00961,-0.60288 -0.54164,-0.85665 -0.71906,-1.36179c-0.23995,-0.63023 -0.0328,-1.35046 0.3788,-1.83078c0.38889,-0.48937 0.04751,-1.1303 0.24657,-1.66587c0.28394,-0.72825 1.13188,-0.40627 1.58738,-0.90743c0.48897,-0.38063 0.90628,-1.03942 1.58399,-0.94152c0.65448,0.0456 1.38525,0.17496 1.93908,-0.31574c0.5163,-0.47575 1.23891,-0.73026 1.88709,-0.43785c0.6149,0.20932 1.31414,0.64637 1.31697,1.44998c-0.18763,0.82444 0.52144,0.81434 1.03136,0.92802c0.60367,0.29975 1.22598,0.76551 1.47563,1.46661c0.06662,0.80145 -0.75694,1.46595 -0.38337,2.28409c0.14643,0.79726 -0.48244,1.23989 -0.93451,1.67197c-0.186,0.78004 -0.89127,1.41432 -1.64931,1.22882c-0.61057,-0.11039 -0.98708,0.62545 -1.60969,0.56096c-0.41269,0.4681 -0.13146,4.48518 -0.05507,5.03944c0.3108,0.68523 -0.12247,1.44303 -0.82221,1.41988c-0.5483,0.07244 -1.14549,0.10639 -1.66036,-0.14906l0.00001,0l0,-0.00001z" fill="#00b3d3" id="svg_55" stroke="#666666" stroke-width="0"/>
   <path d="m55.47638,93.41311c-0.29301,-0.27274 -0.05336,-0.75453 -0.03612,-1.10816c0.12653,-0.37795 0.12089,-2.88465 -0.33396,-2.89428c-0.48309,-0.16165 -1.03289,0.06177 -1.47608,-0.25545c-0.30015,-0.19595 -0.39345,-0.5956 -0.38558,-0.95489c0.00593,-0.37236 -0.33454,-0.5291 -0.44413,-0.8411c-0.1482,-0.38926 -0.02025,-0.8341 0.23397,-1.13077c0.24019,-0.30226 0.02935,-0.69813 0.1523,-1.02892c0.17537,-0.4498 0.69909,-0.25093 0.98044,-0.56048c0.30201,-0.23509 0.55976,-0.64199 0.97835,-0.58152c0.40424,0.02816 0.8556,0.10807 1.19767,-0.19502c0.31889,-0.29385 0.76521,-0.45104 1.16555,-0.27043c0.37979,0.12928 0.81168,0.39922 0.81342,0.89557c-0.11588,0.50922 0.32207,0.50298 0.63702,0.57319c0.37285,0.18514 0.75722,0.47282 0.91141,0.90585c0.04116,0.49501 -0.46752,0.90544 -0.23678,1.41077c0.09044,0.49242 -0.29798,0.76581 -0.5772,1.03269c-0.11489,0.48179 -0.55049,0.87354 -1.01869,0.75897c-0.37712,-0.06818 -0.60967,0.38631 -0.99422,0.34648c-0.2549,0.28912 -0.0812,2.77026 -0.03402,3.1126c0.19197,0.42322 -0.07564,0.89128 -0.50783,0.87698c-0.33866,0.04475 -0.70751,0.06571 -1.02552,-0.09207l0.00001,-0.00001l-0.00001,0z" fill="#00b3d3" id="svg_56" stroke="#666666" stroke-width="0"/>
   <path d="m17.17022,97.22981c-0.25115,-0.23377 -0.04573,-0.64674 -0.03096,-0.94984c0.10846,-0.32396 0.10362,-2.47257 -0.28624,-2.48082c-0.41408,-0.13856 -0.88534,0.05295 -1.26521,-0.21896c-0.25727,-0.16796 -0.33725,-0.5105 -0.3305,-0.81847c0.00508,-0.31917 -0.28676,-0.45352 -0.38069,-0.72095c-0.12702,-0.33365 -0.01736,-0.71494 0.20054,-0.96923c0.20589,-0.25908 0.02516,-0.5984 0.13055,-0.88193c0.15031,-0.38554 0.59922,-0.21508 0.84037,-0.4804c0.25887,-0.20151 0.47979,-0.55028 0.83859,-0.49845c0.34649,0.02414 0.73336,0.09262 1.02657,-0.16716c0.27333,-0.25187 0.65589,-0.3866 0.99904,-0.2318c0.32554,0.11082 0.69572,0.3422 0.69722,0.76764c-0.09933,0.43646 0.27606,0.43112 0.54602,0.49131c0.31959,0.15868 0.64905,0.40526 0.78121,0.77643c0.03528,0.4243 -0.40073,0.77609 -0.20295,1.20923c0.07752,0.42208 -0.25541,0.65641 -0.49474,0.88516c-0.09847,0.41296 -0.47185,0.74876 -0.87317,0.65055c-0.32324,-0.05844 -0.52257,0.33113 -0.85218,0.29698c-0.21849,0.24782 -0.0696,2.37451 -0.02915,2.66794c0.16454,0.36277 -0.06484,0.76396 -0.4353,0.7517c-0.29027,0.03835 -0.60643,0.05632 -0.87901,-0.07891l0,-0.00002l-0.00001,0z" fill="#00b3d3" id="svg_57" stroke="#666666" stroke-width="0"/>
   <path d="m339.83809,92.93823c-0.29302,-0.27274 -0.05336,-0.75453 -0.03612,-1.10815c0.12653,-0.37796 0.12089,-2.88466 -0.33396,-2.89429c-0.48309,-0.16165 -1.0329,0.06178 -1.47608,-0.25545c-0.30014,-0.19595 -0.39345,-0.59559 -0.38558,-0.95488c0.00593,-0.37236 -0.33454,-0.52911 -0.44413,-0.84111c-0.1482,-0.38925 -0.02026,-0.8341 0.23396,-1.13077c0.2402,-0.30226 0.02935,-0.69813 0.1523,-1.02892c0.17537,-0.4498 0.6991,-0.25093 0.98045,-0.56047c0.302,-0.2351 0.55975,-0.64199 0.97834,-0.58153c0.40424,0.02816 0.8556,0.10807 1.19767,-0.19501c0.31889,-0.29385 0.76521,-0.45105 1.16555,-0.27044c0.37979,0.12928 0.81168,0.39923 0.81342,0.89557c-0.11588,0.50921 0.32207,0.50298 0.63702,0.57319c0.37285,0.18514 0.75722,0.47281 0.91141,0.90585c0.04116,0.49501 -0.46752,0.90543 -0.23678,1.41076c0.09044,0.49242 -0.29798,0.76582 -0.5772,1.03269c-0.11489,0.4818 -0.55049,0.87355 -1.01869,0.75898c-0.37712,-0.06818 -0.60967,0.38631 -0.99422,0.34648c-0.2549,0.28912 -0.0812,2.77026 -0.03402,3.11259c0.19197,0.42323 -0.07564,0.89129 -0.50783,0.87699c-0.33866,0.04474 -0.70751,0.06571 -1.02552,-0.09207l0.00001,-0.00001z" fill="#00b3d3" id="svg_58" stroke="#666666" stroke-width="0"/>
   <path d="m-1.77516,101.4135l-0.43472,-6.02721c-3.04306,1.8835 27.8223,0.7534 35.64732,-0.3767c7.82502,-1.13011 18.6931,-2.63691 27.8223,-2.26021c9.12919,0.3767 20.86673,0.37671 24.77923,0.3767c3.91251,0 19.12784,-1.8835 33.47371,-2.26021c14.34587,-0.3767 53.03625,2.63691 59.99183,3.01361c6.95557,0.3767 14.34586,-1.13011 23.47506,-1.88351c9.12919,-0.7534 17.38894,0.7534 20.432,0.7534c3.04306,0 18.69311,-4.52041 29.56119,-3.76701c10.86809,0.7534 27.8223,3.01361 31.30008,3.39031c3.47779,0.3767 22.1709,-0.3767 27.8223,0c5.65141,0.3767 17.38894,-1.8835 27.38758,-1.1301c9.99864,0.7534 22.60561,3.3903 21.73617,3.0136l0.76591,6.95114l-363.75994,0.20619l-0.00002,0z" fill="url(#svg_62)" id="svg_47" stroke="#666666" stroke-width="0"/>
  </g>
 </g>
</svg>