<svg width="360" height="640" xmlns="http://www.w3.org/2000/svg" xmlns:svg="http://www.w3.org/2000/svg">
 <!-- Created with SVG-edit - https://github.com/SVG-Edit/svgedit-->
 <defs>

  <linearGradient id="svg_36" x2="0" y2="1">
   <stop offset="0" stop-color="#005fbf"/>
   <stop offset="1" stop-color="#3585d6"/>
  </linearGradient>
 </defs>
  <g class="layer" display="inline">
  <title>car2</title>
  <path d="m-1.338775,469.843501c29.226022,-24.99992 80.407688,-66.123021 182.840266,-65.549993c102.432577,0.573027 158.341739,42.045053 182.095004,66.811848l1.016183,171.013862l-365.967636,-0.630928l0.016183,-171.644789z" fill="url(#svg_36)" id="svg_17" stroke="#666666" stroke-width="0"/>
 </g>
 <g class="layer" display="inline">
  <title>steering wheel</title>
  <g id="svg_27">
   <circle cx="148.547308" cy="442.421204" fill="#000000" fill-opacity="0" id="svg_7" r="39.427864" stroke="#0339a6" stroke-width="15"/>
   <path d="m107.836701,424.971518c0.449843,-0.918034 15.744431,6.426241 38.686321,6.426241c22.941891,0 39.136165,-6.401761 38.536376,-6.120227c-0.599789,0.281533 6.447719,18.275016 3.748673,18.581029c-2.699046,0.306014 -25.890847,-1.699405 -31.488868,5.440866c-5.598021,7.140264 0.949662,29.305697 2.099258,34.150879l-21.123779,0.215737c0.168684,-5.278699 6.428975,-24.825179 2.380405,-32.628468c-4.04857,-7.803289 -32.838391,-9.859675 -33.888017,-6.340544c-1.049626,3.519131 0.599789,-18.807477 1.049626,-19.725511l0.000006,0l-0.000001,-0.000001l0,-0.000001z" fill="#0339a6" id="svg_21" stroke="#0339a6" stroke-width="0"/>
  </g>
 </g>
</svg>