<svg width="360" height="640" xmlns="http://www.w3.org/2000/svg" xmlns:svg="http://www.w3.org/2000/svg">
 <!-- Created with SVG-edit - https://github.com/SVG-Edit/svgedit-->
 <defs>
  <linearGradient id="svg_35" x2="0" y2="1">
   <!-- <stop offset="0" stop-color="#00c4de"/>
   <stop offset="1" stop-color="#54dff2"/> -->
   <stop offset="0" stop-color="#ff794e"/>
   <stop offset="1" stop-color="#ffb44c"/>
  </linearGradient>
  <linearGradient id="svg_45" x1="0" x2="0" y1="0" y2="1">
   <stop offset="0" stop-color="#00c4de"/>
   <stop offset="1" stop-color="#54dff2"/>
  </linearGradient>
 </defs>
 <g class="layer" display="inline">
  <title>city2</title>
  <g id="svg_43">
   <path d="m-0.750274,328.015194c0,0 0,-23.647971 0,-23.647971c0,0 5.970462,0 5.970462,0.394132c0,0.394132 -0.442256,-24.830368 -0.221125,-24.830368c0.221125,0 15.036717,0 15.036717,0.394132c0,0.394132 0,24.093729 -0.058961,23.963261c-0.058961,-0.130468 8.914131,0.078835 8.845124,0c-0.069006,-0.078835 0.280086,-9.380352 0.280086,-9.380352c0,0 12.39107,0 12.324214,-0.078835c-0.066857,-0.078835 0.058961,-10.964456 -0.221125,-11.035717c-0.280086,-0.07126 13.768904,0.078835 13.709943,0c-0.058961,-0.078835 -0.383296,20.179606 -0.383296,20.573738c0,0.394132 4.004798,0 3.921346,-0.078835c-0.083452,-0.078835 0.058961,-29.875255 0,-29.95409c-0.058961,-0.078835 1.827985,0.078835 1.769025,-0.394132c-0.058961,-0.472967 0.058961,-4.25663 0,-4.335465c-0.058961,-0.078835 8.461829,0.078835 8.402874,0c-0.058961,-0.078835 0.058961,4.098213 0,3.941333c-0.058961,-0.156889 1.83901,0.078835 1.769025,0c-0.069991,-0.078835 0.058961,43.041128 0,42.960469l6.854974,0l-0.16217,-28.692858c0,0.394132 8.414503,0 8.343907,-0.078835c-0.07059,-0.078835 0.058961,27.66813 0,27.589296c-0.058961,-0.078835 8.508255,0.078835 8.402874,0c-0.105387,-0.078835 0.058961,-41.305105 0,-41.383939c-0.058961,-0.078835 9.348977,0.078835 9.287381,0c-0.061591,-0.078835 -0.383296,42.645171 -0.16217,42.645171c0.221125,0 9.068953,0 9.007295,-0.078835c-0.061653,-0.078835 -0.16217,-32.634191 0.058961,-32.634191l9.950768,-0.394132l0,24.436236c0.221125,0 13.26953,0 13.208726,-0.078835c-0.060799,-0.078835 0.058961,-37.365826 0,-37.442607c-0.058961,-0.076781 2.527975,0.078835 2.432412,-0.394132c-0.095568,-0.472967 0.058961,-4.312643 0,-4.729598c-0.058961,-0.416947 15.537929,-0.315298 15.316798,-0.315298c-0.221125,0 0,4.745987 -0.058961,4.650763c-0.058961,-0.095233 2.310118,0.078835 2.211281,0c-0.098837,-0.078835 -0.16217,30.427057 -0.16217,30.82119l9.508511,0l-0.280091,-18.208943c-0.058961,-0.078835 15.563184,0.078835 15.478968,0c-0.08421,-0.078835 0.058961,18.997208 0,18.918374c-0.058961,-0.078835 4.928808,0.078835 4.864818,0c-0.063983,-0.078835 -0.16217,27.66813 0.058961,27.66813c0.221125,0 -185.305386,-0.788265 -185.305386,-0.788265l0.000006,0l0,0.000008l0.000002,0z" fill="url(#svg_35)" id="svg_39" stroke="#666666" stroke-width="0"/>
   <path d="m184.013866,328.572673c0,0 0,-27.274786 0,-27.274786c0,0 5.710439,0 5.710439,0.454581c0,0.454581 -0.422997,-28.63853 -0.211498,-28.63853c0.211498,0 14.381849,0 14.381849,0.454581c0,0.454581 0,27.788921 -0.056387,27.63844c-0.056393,-0.150473 8.525909,0.090928 8.459906,0c-0.066003,-0.09092 0.267891,-10.818987 0.267891,-10.818987c0,0 11.851425,0 11.787487,-0.090928c-0.063949,-0.09092 0.056387,-12.646044 -0.211498,-12.728231c-0.267891,-0.082187 13.169251,0.09092 13.112858,0c-0.056387,-0.090928 -0.366604,23.274492 -0.366604,23.729073c0,0.454581 3.830387,0 3.750566,-0.090928c-0.079815,-0.09092 0.056393,-34.457132 0,-34.54806c-0.056387,-0.090928 1.748374,0.09092 1.691981,-0.454581c-0.056387,-0.545509 0.056393,-4.909457 0,-5.000376c-0.056387,-0.09092 8.093308,0.09092 8.036915,0c-0.056393,-0.09092 0.056393,4.726747 0,4.545795c-0.056393,-0.180952 1.758923,0.09092 1.691981,0c-0.066942,-0.090928 0.056393,49.642219 0,49.549197l6.556432,0l-0.155111,-33.093397c0,0.454581 8.048041,0 7.980522,-0.090928c-0.067513,-0.09092 0.056399,31.911509 0,31.820581c-0.056387,-0.090928 8.137709,0.09092 8.03692,0c-0.100794,-0.090928 0.056387,-47.639953 0,-47.730872c-0.056399,-0.090928 8.941813,0.09092 8.882902,0c-0.05891,-0.090928 -0.366604,49.185535 -0.155106,49.185535c0.211498,0 8.673984,0 8.615017,-0.09092c-0.058972,-0.090928 -0.155111,-37.6392 0.056387,-37.6392l9.517398,-0.454581l0,28.183949c0.211498,0 12.691632,0 12.633474,-0.090928c-0.058157,-0.09092 0.056393,-43.096516 0,-43.185077c-0.056399,-0.088553 2.417875,0.09092 2.326476,-0.454581c-0.091405,-0.545501 0.056393,-4.974062 0,-5.454957c-0.056393,-0.480887 14.861238,-0.363653 14.64974,-0.363653c-0.211498,0 0,5.473869 -0.056393,5.36403c-0.056399,-0.109831 2.209511,0.09092 2.114972,0c-0.094533,-0.09092 -0.155106,35.093561 -0.155106,35.548142l9.094407,0l-0.267891,-21.001595c-0.056399,-0.09092 14.88539,0.090928 14.80484,0c-0.080545,-0.09092 0.056393,21.910757 0,21.819829c-0.056399,-0.09092 4.714148,0.090928 4.652947,0c-0.061195,-0.09092 -0.155106,31.911509 0.056393,31.911509c0.211498,0 -177.235122,-0.909154 -177.235122,-0.909154l0.000006,0l0.000011,0.000008l-0.000002,0z" fill="url(#svg_35)" id="svg_10" stroke="#666666" stroke-width="0"/>
  </g>
 </g>
</svg>