<svg width="360" height="640" xmlns="http://www.w3.org/2000/svg" xmlns:svg="http://www.w3.org/2000/svg">
 <!-- Created with SVG-edit - https://github.com/SVG-Edit/svgedit-->
 <defs>
  <linearGradient id="svg_38" x2="0" y2="1">
   <stop offset="0" stop-color="#ffffff"/>
   <stop offset="1" stop-color="#ffffff" stop-opacity="0.5"/>
  </linearGradient>
 </defs>
<g class="layer" display="inline">
  <title>clouds2</title>
  <path d="m59.713263,260.056313c10.543382,0 31.441867,0.268053 45.939017,0c14.49715,-0.268053 21.651586,-5.897192 18.827469,-15.011029c-2.824117,-9.113837 -11.484754,-7.505519 -11.296483,-10.364763c0.188271,-2.859244 1.129652,-15.547144 -10.919933,-18.853145c-12.049576,-3.306002 -19.580562,4.914328 -21.086764,8.488383c-1.506194,3.574054 -6.401343,-4.646275 -15.815073,0c-9.41373,4.646275 -3.388947,13.224006 -7.907537,13.224006c-4.51859,0 -15.438523,2.501843 -14.685421,10.364763c0.753101,7.86292 6.401343,12.151785 16.944716,12.151785l0.000009,0z" fill="url(#svg_38)" id="svg_19" opacity="0.5" stroke="#aad4ff" stroke-width="0" transform="matrix(1 0 0 1 0 0)"/>
  <path d="m127.77643,209.55195c7.93576,0 23.66556,0.21865 34.57722,0c10.91166,-0.21865 16.29664,-4.81022 14.17099,-12.2442c-2.12565,-7.43398 -8.64431,-6.1221 -8.5026,-8.45433c0.14171,-2.33223 0.85026,-12.68149 -8.21918,-15.37813c-9.06944,-2.69664 -14.73783,4.00852 -15.87151,6.9238c-1.13368,2.91529 -4.81814,-3.78987 -11.90363,0c-7.0855,3.78987 -2.55078,10.78656 -5.95182,10.78656c-3.40104,0 -11.62021,2.0407 -11.05337,8.45433c0.56684,6.41363 4.81814,9.91197 12.75389,9.91197l0.00001,0z" fill="url(#svg_38)" id="svg_22" opacity="0.5" stroke="#aad4ff" stroke-width="0" transform="matrix(1 0 0 1 0 0)"/>
  <path d="m225.36735,254.360427c12.746721,0 38.012538,0.294317 55.539292,0c17.526736,-0.294317 26.176309,-6.475074 22.762001,-16.482007c-3.414299,-10.006932 -13.884821,-8.241008 -13.657196,-11.380435c0.227625,-3.139436 1.365725,-17.070649 -13.201963,-20.70062c-14.567687,-3.629972 -23.672476,5.395888 -25.493442,9.320177c-1.820966,3.924289 -7.739081,-5.101572 -19.120077,0c-11.380996,5.101572 -4.097166,14.519863 -9.560047,14.519863c-5.462882,0 -18.664836,2.747005 -17.754361,11.380435c0.910475,8.63343 7.739081,13.342579 20.485802,13.342579l0,0.000008l-0.000009,0z" fill="url(#svg_38)" id="svg_23" opacity="0.5" stroke="#aad4ff" stroke-width="0" transform="matrix(1 0 0 1 0 0)"/>
  <path d="m238.759594,135.312888c16.715431,0 49.847799,0.401266 72.831514,0c22.983705,-0.401276 34.326336,-8.827887 29.848978,-22.470983c-4.477347,-13.643085 -18.207873,-11.235481 -17.909379,-15.515673c0.298484,-4.280181 1.790937,-23.273504 -17.31242,-28.222465c-19.103347,-4.948971 -31.042926,7.356555 -33.430842,12.706792c-2.387926,5.350237 -10.148652,-6.9553 -25.073147,0c-14.924484,6.9553 -5.372811,19.795854 -12.536579,19.795854c-7.163758,0 -24.476158,3.745164 -23.282189,15.515673c1.193948,11.770509 10.148652,18.190791 26.864073,18.190791l0,0.000011l-0.00001,0l0.000001,0z" fill="url(#svg_38)" id="svg_12" opacity="0.5" stroke="#aad4ff" stroke-width="0"/>
  <path d="m33.311702,167.006145c14.640115,0 43.658922,0.380945 63.78908,0c20.130147,-0.380945 30.06452,-8.380717 26.143057,-21.332726c-3.921451,-12.952009 -15.947262,-10.666351 -15.685828,-14.729724c0.261423,-4.063373 1.568581,-22.094604 -15.162982,-26.792893c-16.731563,-4.698277 -27.188793,6.983935 -29.28023,12.063145c-2.091437,5.079222 -8.888649,-6.60299 -21.960172,0c-13.071523,6.602978 -4.705753,18.793109 -10.980086,18.793109c-6.274333,0 -21.437305,3.555442 -20.391581,14.729724c1.045724,11.174293 8.888638,17.269353 23.528753,17.269353l-0.000011,0.000012z" fill="url(#svg_38)" id="svg_18" opacity="0.5" stroke="#aad4ff" stroke-width="0"/>
 </g>
</svg>