<svg width="360" height="640" xmlns="http://www.w3.org/2000/svg" xmlns:svg="http://www.w3.org/2000/svg">
 <!-- Created with SVG-edit - https://github.com/SVG-Edit/svgedit-->
 <defs>
  <linearGradient id="svg_62" x2="0" y2="1">
   <stop offset="0" stop-color="#00b3d3"/>
   <stop offset="1" stop-color="#14c3e2"/>
  </linearGradient>
 </defs>
 <g class="layer" display="inline">
  <title>trees2</title>
  <g id="svg_42">
   <path d="m147.006337,321.888327c-0.390694,-0.363653 -0.07115,-1.006045 -0.04816,-1.477545c0.168712,-0.503935 0.161184,-3.846211 -0.445275,-3.859046c-0.644119,-0.215537 -1.377195,0.08237 -1.968101,-0.340602c-0.400196,-0.261271 -0.524605,-0.794128 -0.514111,-1.27318c0.007907,-0.496483 -0.446058,-0.705474 -0.592171,-1.121476c-0.197596,-0.519009 -0.027007,-1.112141 0.311954,-1.507698c0.320264,-0.403009 0.039129,-0.93084 0.203065,-1.371893c0.233827,-0.599728 0.93213,-0.334575 1.307253,-0.7473c0.402675,-0.313462 0.746344,-0.855985 1.304462,-0.775365c0.538985,0.037549 1.140793,0.144083 1.596886,-0.260026c0.425189,-0.391793 1.020281,-0.601391 1.55407,-0.360577c0.506385,0.17238 1.082236,0.532301 1.084562,1.194099c-0.154514,0.678947 0.429426,0.670626 0.849362,0.764249c0.497139,0.246847 1.009633,0.630419 1.215217,1.20779c0.05487,0.660016 -0.623364,1.207253 -0.315709,1.881023c0.120586,0.656559 -0.397297,1.021087 -0.769595,1.376919c-0.153181,0.642386 -0.733989,1.164733 -1.358255,1.011966c-0.502817,-0.09091 -0.812882,0.515083 -1.325621,0.461966c-0.339869,0.385498 -0.108266,3.693681 -0.045357,4.150127c0.255949,0.564311 -0.100857,1.188378 -0.677116,1.169316c-0.451538,0.059656 -0.943339,0.087609 -1.367353,-0.122758l-0.000006,0.000013z" fill="#00b3d3" id="svg_49" stroke="#666666" stroke-width="0"/>
   <path d="m213.105853,321.913097c-0.293019,-0.272743 -0.053361,-0.754534 -0.036123,-1.108159c0.126531,-0.377951 0.120893,-2.884655 -0.333958,-2.894283c-0.483088,-0.161651 -1.032896,0.061776 -1.476078,-0.25545c-0.300144,-0.19595 -0.393451,-0.595596 -0.385583,-0.954885c0.005928,-0.372362 -0.334542,-0.529106 -0.444129,-0.841105c-0.1482,-0.389255 -0.020257,-0.834103 0.233963,-1.130772c0.240197,-0.302259 0.02935,-0.698128 0.152301,-1.028921c0.175371,-0.449799 0.699097,-0.25093 0.980443,-0.560472c0.302005,-0.235094 0.559758,-0.641992 0.978344,-0.581523c0.40424,0.028159 0.855596,0.108066 1.197666,-0.195018c0.318892,-0.29385 0.76521,-0.451043 1.165554,-0.270436c0.379792,0.129285 0.811674,0.399227 0.813421,0.895572c-0.115884,0.509212 0.322068,0.502973 0.637017,0.573189c0.372854,0.18514 0.757224,0.472813 0.911414,0.905844c0.041154,0.495014 -0.467523,0.905438 -0.236782,1.410768c0.090437,0.492419 -0.297977,0.765812 -0.577201,1.032691c-0.114885,0.481791 -0.550489,0.873547 -1.018692,0.758973c-0.377114,-0.068178 -0.609665,0.38631 -0.994215,0.346479c-0.2549,0.289123 -0.081202,2.770263 -0.034018,3.112596c0.191963,0.423228 -0.075643,0.891284 -0.507837,0.876985c-0.338655,0.044745 -0.707504,0.065708 -1.025516,-0.092067l0.000011,-0.000006z" fill="#00b3d3" id="svg_51" stroke="#666666" stroke-width="0"/>
   <path d="m229.650551,320.917355c-0.474409,-0.441578 -0.086398,-1.221626 -0.058484,-1.794158c0.204863,-0.61192 0.195724,-4.670398 -0.540692,-4.685978c-0.782149,-0.261727 -1.672308,0.100019 -2.389841,-0.413588c-0.485953,-0.317251 -0.637017,-0.964294 -0.624283,-1.546004c0.009604,-0.602873 -0.54164,-0.856648 -0.719065,-1.361789c-0.239942,-0.630225 -0.032793,-1.350455 0.378799,-1.830776c0.388896,-0.489368 0.047519,-1.130303 0.246578,-1.665874c0.283932,-0.728244 1.131876,-0.406267 1.587379,-0.907432c0.488965,-0.380627 0.906275,-1.039412 1.583987,-0.941512c0.654483,0.045596 1.38525,0.174956 1.93908,-0.315744c0.516301,-0.475751 1.238916,-0.730257 1.887086,-0.437846c0.6149,0.209317 1.314145,0.646368 1.31697,1.44998c-0.187624,0.824437 0.521446,0.814334 1.031365,0.92802c0.603674,0.299745 1.225977,0.765506 1.475625,1.466604c0.066629,0.801449 -0.75694,1.465948 -0.383365,2.284095c0.146425,0.797254 -0.482436,1.239888 -0.934512,1.671969c-0.186002,0.780042 -0.891271,1.414319 -1.649311,1.228816c-0.610566,-0.110391 -0.987074,0.625455 -1.609683,0.56096c-0.412698,0.468099 -0.131466,4.485183 -0.055074,5.039441c0.310797,0.68523 -0.12247,1.443028 -0.822214,1.419883c-0.548294,0.072442 -1.145484,0.106384 -1.660356,-0.14906l0.000011,-0.000006z" fill="#00b3d3" id="svg_55" stroke="#666666" stroke-width="0"/>
   <path d="m56.476384,321.91311c-0.293019,-0.272743 -0.053361,-0.754534 -0.036123,-1.108159c0.126531,-0.377951 0.120893,-2.884655 -0.333958,-2.894283c-0.483088,-0.161651 -1.032896,0.061776 -1.476078,-0.25545c-0.30015,-0.19595 -0.393451,-0.595596 -0.385583,-0.954885c0.005928,-0.372362 -0.334542,-0.529106 -0.444129,-0.841105c-0.1482,-0.389255 -0.020257,-0.834103 0.233963,-1.130772c0.240197,-0.302259 0.02935,-0.698128 0.152301,-1.028921c0.175371,-0.449799 0.699097,-0.25093 0.980443,-0.560472c0.302005,-0.235094 0.559758,-0.641992 0.978349,-0.581523c0.40424,0.028159 0.855596,0.108066 1.197666,-0.195018c0.318892,-0.29385 0.76521,-0.451043 1.165554,-0.270436c0.379792,0.129285 0.81168,0.399227 0.813421,0.895579c-0.115884,0.509212 0.322068,0.502973 0.637017,0.573189c0.372854,0.18514 0.757224,0.472813 0.911414,0.905844c0.041154,0.495014 -0.467523,0.905438 -0.236782,1.410768c0.090437,0.492419 -0.297977,0.765812 -0.577201,1.032691c-0.114885,0.481791 -0.550489,0.873547 -1.018692,0.758973c-0.377114,-0.068178 -0.609665,0.38631 -0.994215,0.346479c-0.2549,0.289123 -0.081202,2.770263 -0.034018,3.112596c0.191963,0.423228 -0.075643,0.891284 -0.507837,0.876985c-0.338655,0.044745 -0.707504,0.065708 -1.025516,-0.092067l0.000006,-0.000013z" fill="#00b3d3" id="svg_56" stroke="#666666" stroke-width="0"/>
   <path d="m18.170224,325.729811c-0.251156,-0.233774 -0.045737,-0.646743 -0.030961,-0.949846c0.108458,-0.323959 0.10362,-2.472562 -0.286246,-2.480814c-0.414076,-0.138563 -0.885337,0.052948 -1.265208,-0.218957c-0.257271,-0.16796 -0.337248,-0.510506 -0.330503,-0.818473c0.005083,-0.31917 -0.286751,-0.453519 -0.380682,-0.720948c-0.127025,-0.33365 -0.017364,-0.714946 0.20054,-0.969233c0.205884,-0.259076 0.025158,-0.598397 0.130542,-0.881931c0.150316,-0.385541 0.599227,-0.215081 0.840377,-0.480403c0.258865,-0.201508 0.479792,-0.550275 0.838584,-0.498446c0.346488,0.024139 0.733365,0.092623 1.026571,-0.167159c0.273336,-0.251868 0.655896,-0.386604 0.999043,-0.231799c0.325534,0.110817 0.695722,0.342196 0.69722,0.767638c-0.099331,0.436464 0.276058,0.431118 0.546019,0.491306c0.319589,0.158688 0.649049,0.405266 0.781213,0.776435c0.035272,0.424297 -0.400735,0.776091 -0.202957,1.209228c0.077521,0.422078 -0.255405,0.656415 -0.494739,0.885163c-0.098469,0.412963 -0.471851,0.748757 -0.873164,0.650551c-0.323242,-0.058444 -0.522569,0.331124 -0.852181,0.296982c-0.218488,0.247816 -0.069602,2.374505 -0.029157,2.667936c0.164543,0.362772 -0.064837,0.763956 -0.435292,0.751702c-0.290274,0.03835 -0.606431,0.056318 -0.879012,-0.078913l-0.000006,-0.000019z" fill="#00b3d3" id="svg_57" stroke="#666666" stroke-width="0"/>
   <path d="m340.838089,321.438234c-0.293019,-0.272743 -0.053361,-0.754534 -0.036123,-1.108159c0.126531,-0.377951 0.120893,-2.884655 -0.333958,-2.894283c-0.483088,-0.161651 -1.032896,0.061776 -1.476078,-0.25545c-0.300144,-0.19595 -0.393451,-0.595596 -0.385583,-0.954885c0.005928,-0.372362 -0.334542,-0.529106 -0.444129,-0.841105c-0.1482,-0.389255 -0.020257,-0.834103 0.233963,-1.130772c0.240197,-0.302259 0.02935,-0.698128 0.152301,-1.028921c0.175371,-0.449799 0.699097,-0.25093 0.980443,-0.560472c0.302005,-0.235094 0.559758,-0.641992 0.978344,-0.581523c0.40424,0.028159 0.855596,0.108066 1.197666,-0.195018c0.318892,-0.29385 0.76521,-0.451043 1.165554,-0.270436c0.379792,0.129285 0.81168,0.399227 0.813421,0.895572c-0.115884,0.509212 0.322068,0.502973 0.637017,0.573189c0.372854,0.18514 0.757224,0.472813 0.911414,0.905844c0.041154,0.495014 -0.467523,0.905438 -0.236782,1.410768c0.090437,0.492419 -0.297977,0.765812 -0.577201,1.032691c-0.114885,0.481791 -0.550489,0.873547 -1.018692,0.758973c-0.377114,-0.068178 -0.609665,0.38631 -0.994215,0.346479c-0.2549,0.289123 -0.081202,2.770263 -0.034018,3.112596c0.191963,0.423228 -0.075643,0.891284 -0.507837,0.876985c-0.338655,0.044745 -0.707504,0.065708 -1.025516,-0.092067l0.000011,-0.000006z" fill="#00b3d3" id="svg_58" stroke="#666666" stroke-width="0"/>
   <path d="m-0.775156,329.913505l-0.434725,-6.027217c-3.043063,1.883505 27.822304,0.753402 35.647323,-0.376701c7.825014,-1.130103 18.693103,-2.636908 27.822298,-2.260207c9.129195,0.376701 20.866728,0.376707 24.779235,0.376701c3.912507,-0.000006 19.127833,-1.883505 33.473705,-2.260213c14.345871,-0.376695 53.036252,2.636914 59.991828,3.013609c6.955576,0.376701 14.345865,-1.130103 23.47506,-1.883505c9.129195,-0.753402 17.38894,0.753402 20.432003,0.753402c3.043063,0 18.693109,-4.520413 29.561192,-3.767011c10.868083,0.753402 27.822298,3.013609 31.30008,3.39031c3.477788,0.376701 22.170897,-0.376701 27.822298,0c5.651407,0.376701 17.38894,-1.883505 27.387578,-1.130103c9.998639,0.753402 22.605616,3.390304 21.736172,3.013602l0.76591,6.951136l-363.759945,0.206191l-0.000011,0.000006z" fill="url(#svg_62)" id="svg_47" stroke="#666666" stroke-width="0"/>
  </g>
 </g>
</svg>