<svg width="360" height="640" xmlns="http://www.w3.org/2000/svg" xmlns:svg="http://www.w3.org/2000/svg">
 <!-- Created with SVG-edit - https://github.com/SVG-Edit/svgedit-->
 <defs>
 </defs>
 <g class="layer">
  <title>zebra cross2</title>
  <g id="svg_74">
   <path d="m148.03189,364.821285l12.699349,-25.993993l42.33117,0l12.699344,25.993993l-67.729863,0z" fill="#00c4de" id="svg_75" stroke="#000000" stroke-width="0"/>
   <path d="m157.290793,364.851886l9.232072,-26.111107l30.773576,0l9.232067,26.111107l-49.23772,0l0.000004,0l0.000001,0z" fill="#0460d9" id="svg_76" stroke="#000000" stroke-width="0"/>
   <path d="m166.830794,364.81825l5.696339,-25.922249l18.987794,0l5.696339,25.922249l-30.380469,0l-0.000003,0l-0.000001,0l-0.000001,0l0.000002,0z" fill="#00c4de" id="svg_77" stroke="#000000" stroke-width="0" transform="matrix(1 0 0 1 0 0)"/>
   <path d="m177.328382,365.062065l1.851116,-26.284675l6.170387,0l1.851116,26.284675l-9.872616,0l-0.000001,0l-0.000001,0l0,0l0,0l-0.000001,0z" fill="#0460d9" id="svg_78" stroke="#000000" stroke-width="0"/>
  </g>
 </g>
</svg>