<svg width="640" height="480" xmlns="http://www.w3.org/2000/svg" xmlns:svg="http://www.w3.org/2000/svg">
 <!-- Created with SVG-edit - https://github.com/SVG-Edit/svgedit-->
 <g class="layer">
  <title>Layer 1</title>
  <path d="m-0.79941,413.88321l16.9919,0l0,26.88185l9.10281,0l0,-40.32278l8.49595,0l0,38.48992l14.56449,0l0,-26.2709l16.38505,0l0,12.82997l10.92337,0l0,14.05188l6.67539,0l0,-48.87609l5.46168,-0.61095l-0.60685,-6.72046l16.9919,-0.61095l0,7.33142l6.67539,0l0,49.48704l8.49595,0l0,-39.10087l38.23178,0l0,37.26802l10.31651,0l0,-25.049l9.70966,0l0,-26.88185l20.63303,0l0,51.93085l10.31652,0l0,-20.77234l9.70966,0l0,20.77234l18.20561,0l0.60685,-42.76658l9.10281,0l0,43.37753l6.67539,0l0,-81.86745l16.38505,0l-0.60685,43.37753l8.49595,0l0,35.43517l18.20561,-0.61095l0,-65.37178l27.30842,0l0,29.93661l7.28224,0l0,33.60231l20.02617,0.61095l0,-26.2709l13.35078,0l0,23.82709l19.41932,0l0,-47.65419l9.70966,0l0,50.09799l12.13707,0l-0.60685,-80.0346l13.35078,13.44093l0,65.98272l12.13708,-0.61095l0,-40.32278l27.30842,0l0,40.93373l12.13708,0l0,-63.53892l18.81246,0l-1.21371,67.20463l26.70156,0l0,-34.82421l10.31651,0l0,34.82421l16.38505,0l0.60685,-69.64843l6.06854,0l0,-9.16427l7.8891,0l0,8.55331l6.06854,0l0,72.09224l9.70966,0.61095l0,-31.15851l10.31651,0l0,25.049l14.56449,0l0.60685,-51.3199l14.56449,0l0,-9.16427l12.74393,0l0,53.15275l6.06854,0l0,-29.32566l11.2268,-0.30548l0.91028,86.44959l-642.65811,0" fill="#1f43ad" id="svg_1" stroke="#000000" stroke-width="0"/>
 </g>
</svg>