<svg width="360" height="640" xmlns="http://www.w3.org/2000/svg" xmlns:svg="http://www.w3.org/2000/svg">
 <!-- Created with SVG-edit - https://github.com/SVG-Edit/svgedit-->
 <defs>
  <linearGradient id="svg_35" x2="0" y2="1">
   <stop offset="0" stop-color="#1f43ad"/>
   <stop offset="1" stop-color="#0077bc"/>
  </linearGradient>
 </defs>
 <g class="layer" display="inline">
  <title>city2</title>
  <g id="svg_43">
   <path d="m0.24973,641.01519c0,0 0,-23.64797 0,-23.64797c0,0 5.97046,0 5.97046,0.39414c0,0.39413 -0.44226,-24.83037 -0.22113,-24.83037c0.22113,0 15.03672,0 15.03672,0.39413c0,0.39413 0,24.09373 -0.05896,23.96326c-0.05896,-0.13047 8.91413,0.07884 8.84512,0c-0.069,-0.07884 0.28009,-9.38035 0.28009,-9.38035c0,0 12.39107,0 12.32421,-0.07884c-0.06685,-0.07883 0.05896,-10.96445 -0.22112,-11.03571c-0.28009,-0.07126 13.7689,0.07883 13.70994,0c-0.05896,-0.07884 -0.3833,20.1796 -0.3833,20.57373c0,0.39414 4.0048,0 3.92135,-0.07883c-0.08345,-0.07884 0.05896,-29.87526 0,-29.95409c-0.05896,-0.07884 1.82799,0.07883 1.76903,-0.39413c-0.05897,-0.47297 0.05896,-4.25663 0,-4.33547c-0.05897,-0.07883 8.46182,0.07884 8.40287,0c-0.05896,-0.07883 0.05896,4.09821 0,3.94133c-0.05896,-0.15688 1.83901,0.07884 1.76902,0c-0.06999,-0.07883 0.05897,43.04113 0,42.96047l6.85498,0l-0.16217,-28.69285c0,0.39413 8.4145,0 8.34391,-0.07884c-0.07059,-0.07883 0.05896,27.66813 0,27.5893c-0.05897,-0.07884 8.50825,0.07883 8.40287,0c-0.10539,-0.07884 0.05896,-41.30511 0,-41.38394c-0.05896,-0.07884 9.34898,0.07883 9.28738,0c-0.06159,-0.07884 -0.3833,42.64517 -0.16217,42.64517c0.22113,0 9.06895,0 9.0073,-0.07884c-0.06166,-0.07883 -0.16217,-32.63419 0.05896,-32.63419l9.95076,-0.39413l0,24.43624c0.22113,0 13.26953,0 13.20873,-0.07884c-0.0608,-0.07883 0.05896,-37.36582 0,-37.44261c-0.05896,-0.07678 2.52798,0.07884 2.43241,-0.39413c-0.09557,-0.47296 0.05896,-4.31264 0,-4.7296c-0.05896,-0.41694 15.53793,-0.31529 15.3168,-0.31529c-0.22112,0 0,4.74598 -0.05896,4.65076c-0.05896,-0.09523 2.31012,0.07883 2.21128,0c-0.09884,-0.07884 -0.16217,30.42706 -0.16217,30.82119l9.50851,0l-0.28009,-18.20894c-0.05896,-0.07884 15.56318,0.07883 15.47897,0c-0.08421,-0.07884 0.05896,18.9972 0,18.91837c-0.05896,-0.07883 4.92881,0.07884 4.86482,0c-0.06399,-0.07883 -0.16217,27.66813 0.05896,27.66813c0.22112,0 -185.30539,-0.78826 -185.30539,-0.78826l0.00001,0l0,0l0,0z" fill="url(#svg_35)" id="svg_39" stroke="#666666" stroke-width="0"/>
   <path d="m185.01387,641.57267c0,0 0,-27.27478 0,-27.27478c0,0 5.71044,0 5.71044,0.45458c0,0.45458 -0.423,-28.63853 -0.2115,-28.63853c0.2115,0 14.38185,0 14.38185,0.45458c0,0.45458 0,27.78892 -0.05639,27.63844c-0.05639,-0.15047 8.52591,0.09093 8.4599,0c-0.066,-0.09092 0.2679,-10.81899 0.2679,-10.81899c0,0 11.85142,0 11.78748,-0.09093c-0.06395,-0.09092 0.05639,-12.64604 -0.2115,-12.72823c-0.26789,-0.08218 13.16926,0.09092 13.11286,0c-0.05638,-0.09092 -0.3666,23.2745 -0.3666,23.72908c0,0.45458 3.83039,0 3.75056,-0.09093c-0.07981,-0.09092 0.0564,-34.45713 0,-34.54806c-0.05638,-0.09093 1.74838,0.09092 1.69199,-0.45458c-0.05639,-0.54551 0.05639,-4.90946 0,-5.00038c-0.05639,-0.09092 8.0933,0.09092 8.03691,0c-0.05639,-0.09092 0.05639,4.72675 0,4.5458c-0.05639,-0.18096 1.75892,0.09092 1.69198,0c-0.06694,-0.09093 0.05639,49.64221 0,49.54919l6.55643,0l-0.15511,-33.09339c0,0.45458 8.04804,0 7.98052,-0.09093c-0.06751,-0.09092 0.0564,31.91151 0,31.82058c-0.05638,-0.09093 8.13771,0.09092 8.03692,0c-0.10079,-0.09093 0.05639,-47.63995 0,-47.73087c-0.05639,-0.09093 8.94182,0.09092 8.88291,0c-0.05891,-0.09093 -0.36661,49.18553 -0.15511,49.18553c0.2115,0 8.67398,0 8.61502,-0.09092c-0.05897,-0.09093 -0.15511,-37.6392 0.05638,-37.6392l9.5174,-0.45458l0,28.18395c0.2115,0 12.69164,0 12.63348,-0.09093c-0.05816,-0.09092 0.05639,-43.09651 0,-43.18508c-0.0564,-0.08855 2.41787,0.09092 2.32647,-0.45458c-0.0914,-0.5455 0.0564,-4.97406 0,-5.45495c-0.05639,-0.48089 14.86124,-0.36366 14.64974,-0.36366c-0.2115,0 0,5.47387 -0.05639,5.36403c-0.0564,-0.10983 2.20951,0.09092 2.11497,0c-0.09453,-0.09092 -0.1551,35.09357 -0.1551,35.54815l9.0944,0l-0.26789,-21.0016c-0.0564,-0.09092 14.88539,0.09093 14.80484,0c-0.08054,-0.09092 0.05639,21.91076 0,21.81983c-0.0564,-0.09092 4.71415,0.09093 4.65295,0c-0.0612,-0.09092 -0.15511,31.91151 0.05639,31.91151c0.2115,0 -177.23512,-0.90916 -177.23512,-0.90916l0.00001,0l0.00001,0.00001l0,0z" fill="url(#svg_35)" id="svg_10" stroke="#666666" stroke-width="0"/>
  </g>
 </g>
</svg>