<svg width="200" height="200" xmlns="http://www.w3.org/2000/svg" xmlns:svg="http://www.w3.org/2000/svg">
 <!-- Created with SVG-edit - https://github.com/SVG-Edit/svgedit-->
 <g class="layer" display="inline">
  <title>wheel icon</title>
  <rect fill="#1f43ad" height="200" id="svg_31" stroke="#000000" stroke-width="0" transform="matrix(1 0 0 1 0 0)" width="201" x="-1" y="0"/>
  <g id="svg_11">
   <ellipse cx="96.5" cy="95.50797" fill="#000000" fill-opacity="0" id="svg_39" rx="52.5" ry="51.99204" stroke="#fa9e14" stroke-width="17"/>
   <path d="m50.5,80.5c40.83333,8.5 88.66666,2 91.99999,0l0,22l-91.99999,0l0,-22z" fill="#fa9e14" id="svg_42" stroke="#1f43ad" stroke-width="0"/>
   <path d="m72,98l45,1c-6.5,2.33333 -11.5,4.16667 -13,10.5c-1.5,6.33333 3.5,24.16667 3.5,31.5l-22,0.5c1.66667,-7.66667 3.83333,-27.33333 0.5,-32.5c-3.33333,-5.16667 -10.16667,-7.83333 -14,-11z" fill="#fa9e14" id="svg_43" stroke="#1f43ad" stroke-width="0"/>
  </g>
 </g>
</svg>